<svg xmlns="http://www.w3.org/2000/svg" viewBox="0 0 800 600">
    <!-- Background -->
    <rect width="800" height="600" fill="none"/>
    
    <!-- Start -->
    <circle cx="400" cy="50" r="30" fill="#4CAF50"/>
    <text x="400" y="55" text-anchor="middle" fill="white" font-family="Arial">Start</text>
    
    <!-- Decision Diamond -->
    <path d="M400 100 L490 170 L400 240 L310 170 Z" fill="#FFD700"/>
    <text x="400" y="175" text-anchor="middle" font-family="Arial" font-size="12">
        random &lt; exploration_rate?
    </text>
    
    <!-- Explore Branch -->
    <rect x="150" y="280" width="160" height="60" rx="10" fill="#2196F3"/>
    <text x="230" y="315" text-anchor="middle" fill="white" font-family="Arial" font-size="14">
        Random Action
    </text>
    
    <!-- Exploit Branch -->
    <rect x="490" y="280" width="160" height="60" rx="10" fill="#9C27B0"/>
    <text x="570" y="305" text-anchor="middle" fill="white" font-family="Arial" font-size="14">
        Process State &amp;</text>
    <text x="570" y="325" text-anchor="middle" fill="white" font-family="Arial" font-size="14">
        Get Network Prediction</text>
    
    <!-- Update Box -->
    <rect x="320" y="400" width="160" height="60" rx="10" fill="#FF5722"/>
    <text x="400" y="425" text-anchor="middle" fill="white" font-family="Arial" font-size="14">
        Update</text>
    <text x="400" y="445" text-anchor="middle" fill="white" font-family="Arial" font-size="14">
        exploration rate</text>
    
    <!-- End Circle -->
    <circle cx="400" cy="520" r="30" fill="#f44336"/>
    <text x="400" y="525" text-anchor="middle" fill="white" font-family="Arial">End</text>
    
    <!-- Arrows -->
    <defs>
        <marker id="arrowhead" markerWidth="10" markerHeight="7" 
                refX="9" refY="3.5" orient="auto">
            <polygon points="0 0, 10 3.5, 0 7" fill="#000"/>
        </marker>
    </defs>
    
    <!-- Connect all components with lines -->
    <line x1="400" y1="80" x2="400" y2="100" stroke="#000" 
          stroke-width="2" marker-end="url(#arrowhead)"/>
    
    <line x1="310" y1="170" x2="230" y2="280" stroke="#000" 
          stroke-width="2" marker-end="url(#arrowhead)"/>
    
    <line x1="490" y1="170" x2="570" y2="280" stroke="#000" 
          stroke-width="2" marker-end="url(#arrowhead)"/>
    
    <path d="M230 340 L230 370 L400 370 L400 400" stroke="#000" 
          stroke-width="2" marker-end="url(#arrowhead)" fill="none"/>
    
    <path d="M570 340 L570 370 L400 370" stroke="#000" 
          stroke-width="2" fill="none"/>
    
    <line x1="400" y1="460" x2="400" y2="490" stroke="#000" 
          stroke-width="2" marker-end="url(#arrowhead)"/>
    
    <!-- Labels -->
    <text x="270" y="200" text-anchor="middle" font-family="Arial" font-size="14">Yes</text>
    <text x="530" y="200" text-anchor="middle" font-family="Arial" font-size="14">No</text>
</svg>
