<svg viewBox="0 0 600 200" xmlns="http://www.w3.org/2000/svg">
    <!-- Original Frame -->
    <rect x="20" y="20" width="120" height="120" fill="#87CEEB"/>
    <text x="40" y="160" font-size="12">Original RGB</text>
    <text x="40" y="175" font-size="10">240x256x3</text>
    
    <!-- Arrow -->
    <line x1="150" y1="80" x2="190" y2="80" stroke="black" stroke-width="2"/>
    <polygon points="190,80 185,75 185,85" fill="black"/>
    
    <!-- Grayscale -->
    <rect x="200" y="20" width="120" height="120" fill="#808080"/>
    <text x="220" y="160" font-size="12">Grayscale</text>
    <text x="220" y="175" font-size="10">240x256x1</text>
    
    <!-- Arrow -->
    <line x1="330" y1="80" x2="370" y2="80" stroke="black" stroke-width="2"/>
    <polygon points="370,80 365,75 365,85" fill="black"/>
    
    <!-- Resized -->
    <rect x="380" y="38" width="84" height="84" fill="#808080"/>
    <text x="390" y="160" font-size="12">Resized</text>
    <text x="390" y="175" font-size="10">84x84x1</text>
    
    <!-- Arrow -->
    <line x1="474" y1="80" x2="514" y2="80" stroke="black" stroke-width="2"/>
    <polygon points="514,80 509,75 509,85" fill="black"/>
    
    <!-- Stacked Frames -->
    <rect x="524" y="38" width="84" height="84" fill="#808080" opacity="0.4"/>
    <rect x="528" y="42" width="84" height="84" fill="#808080" opacity="0.6"/>
    <rect x="532" y="46" width="84" height="84" fill="#808080" opacity="0.8"/>
    <rect x="536" y="50" width="84" height="84" fill="#808080"/>
    <text x="534" y="160" font-size="12">Stacked</text>
    <text x="534" y="175" font-size="10">84x84x4</text>
</svg>
