<svg viewBox="0 0 800 500" xmlns="http://www.w3.org/2000/svg">
  <defs>
    <linearGradient id="mnistGradient" x1="0%" y1="0%" x2="100%" y2="0%">
      <stop offset="0%" style="stop-color:#e8e8e8;stop-opacity:1" />
      <stop offset="100%" style="stop-color:#333333;stop-opacity:1" />
    </linearGradient>
    <linearGradient id="colorGradient" x1="0%" y1="0%" x2="100%" y2="0%">
      <stop offset="0%" style="stop-color:#ff6b6b;stop-opacity:1" />
      <stop offset="33%" style="stop-color:#4ecdc4;stop-opacity:1" />
      <stop offset="66%" style="stop-color:#45b7d1;stop-opacity:1" />
      <stop offset="100%" style="stop-color:#96ceb4;stop-opacity:1" />
    </linearGradient>
    <filter id="shadow" x="-20%" y="-20%" width="140%" height="140%">
      <feDropShadow dx="2" dy="2" stdDeviation="3" flood-color="#00000040"/>
    </filter>
  </defs>
  
  <!-- Background -->
  <rect width="800" height="500" fill="#f8f9fa"/>
  
  <!-- Title -->
  <text x="400" y="30" text-anchor="middle" font-family="Arial, sans-serif" font-size="20" font-weight="bold" fill="#2c3e50">
    ANN Computational Complexity Comparison
  </text>
  
  <!-- MNIST Section -->
  <g transform="translate(50, 80)">
    <!-- MNIST Image Representation -->
    <rect x="0" y="0" width="140" height="140" fill="url(#mnistGradient)" stroke="#333" stroke-width="2" filter="url(#shadow)"/>
    <text x="70" y="155" text-anchor="middle" font-family="Arial, sans-serif" font-size="14" font-weight="bold" fill="#2c3e50">MNIST</text>
    <text x="70" y="170" text-anchor="middle" font-family="Arial, sans-serif" font-size="12" fill="#7f8c8d">28 × 28 × 1</text>
    
    <!-- Grid lines to show pixels -->
    <g stroke="#666" stroke-width="0.5" opacity="0.3">
      <!-- Vertical lines -->
      <line x1="20" y1="20" x2="20" y2="120"/>
      <line x1="40" y1="20" x2="40" y2="120"/>
      <line x1="60" y1="20" x2="60" y2="120"/>
      <line x1="80" y1="20" x2="80" y2="120"/>
      <line x1="100" y1="20" x2="100" y2="120"/>
      <line x1="120" y1="20" x2="120" y2="120"/>
      <!-- Horizontal lines -->
      <line x1="20" y1="20" x2="120" y2="20"/>
      <line x1="20" y1="40" x2="120" y2="40"/>
      <line x1="20" y1="60" x2="120" y2="60"/>
      <line x1="20" y1="80" x2="120" y2="80"/>
      <line x1="20" y1="100" x2="120" y2="100"/>
      <line x1="20" y1="120" x2="120" y2="120"/>
    </g>
    
    <!-- Arrow pointing to neuron -->
    <path d="M 180 70 Q 220 70 250 70" stroke="#e74c3c" stroke-width="3" fill="none" marker-end="url(#arrowhead)"/>
    
    <!-- Single Neuron -->
    <circle cx="280" cy="70" r="25" fill="#3498db" stroke="#2980b9" stroke-width="3" filter="url(#shadow)"/>
    <text x="280" y="76" text-anchor="middle" font-family="Arial, sans-serif" font-size="12" fill="white" font-weight="bold">N</text>
    
    <!-- Weight calculation -->
    <text x="70" y="200" text-anchor="middle" font-family="Arial, sans-serif" font-size="14" font-weight="bold" fill="#27ae60">
      Weights per neuron: 784
    </text>
    <text x="70" y="220" text-anchor="middle" font-family="Arial, sans-serif" font-size="12" fill="#7f8c8d">
      (28 × 28 × 1 = 784)
    </text>
    <text x="70" y="240" text-anchor="middle" font-family="Arial, sans-serif" font-size="12" fill="#27ae60" font-weight="bold">
      ✓ Manageable
    </text>
  </g>
  
  <!-- Color Image Section -->
  <g transform="translate(450, 80)">
    <!-- Color Image Representation -->
    <rect x="0" y="0" width="140" height="140" fill="url(#colorGradient)" stroke="#333" stroke-width="2" filter="url(#shadow)"/>
    <text x="70" y="155" text-anchor="middle" font-family="Arial, sans-serif" font-size="14" font-weight="bold" fill="#2c3e50">Color Image</text>
    <text x="70" y="170" text-anchor="middle" font-family="Arial, sans-serif" font-size="12" fill="#7f8c8d">64 × 64 × 3</text>
    
    <!-- RGB layers indication -->
    <rect x="10" y="10" width="120" height="120" fill="#ff000040" stroke="#e74c3c" stroke-width="1"/>
    <rect x="15" y="15" width="120" height="120" fill="#00ff0040" stroke="#27ae60" stroke-width="1"/>
    <rect x="20" y="20" width="120" height="120" fill="#0000ff40" stroke="#3498db" stroke-width="1"/>
    
    <!-- More detailed grid -->
    <g stroke="#333" stroke-width="0.3" opacity="0.4">
      <!-- Show more granular pixels -->
      <line x1="25" y1="25" x2="25" y2="125"/>
      <line x1="35" y1="25" x2="35" y2="125"/>
      <line x1="45" y1="25" x2="45" y2="125"/>
      <line x1="55" y1="25" x2="55" y2="125"/>
      <line x1="65" y1="25" x2="65" y2="125"/>
      <line x1="75" y1="25" x2="75" y2="125"/>
      <line x1="85" y1="25" x2="85" y2="125"/>
      <line x1="95" y1="25" x2="95" y2="125"/>
      <line x1="105" y1="25" x2="105" y2="125"/>
      <line x1="115" y1="25" x2="115" y2="125"/>
      <line x1="125" y1="25" x2="125" y2="125"/>
      
      <line x1="25" y1="25" x2="125" y2="25"/>
      <line x1="25" y1="35" x2="125" y2="35"/>
      <line x1="25" y1="45" x2="125" y2="45"/>
      <line x1="25" y1="55" x2="125" y2="55"/>
      <line x1="25" y1="65" x2="125" y2="65"/>
      <line x1="25" y1="75" x2="125" y2="75"/>
      <line x1="25" y1="85" x2="125" y2="85"/>
      <line x1="25" y1="95" x2="125" y2="95"/>
      <line x1="25" y1="105" x2="125" y2="105"/>
      <line x1="25" y1="115" x2="125" y2="115"/>
      <line x1="25" y1="125" x2="125" y2="125"/>
    </g>
    
    <!-- Arrow pointing to neuron -->
    <path d="M 180 70 Q 220 70 250 70" stroke="#e74c3c" stroke-width="3" fill="none" marker-end="url(#arrowhead)"/>
    
    <!-- Single Neuron (larger to show complexity) -->
    <circle cx="280" cy="70" r="30" fill="#e74c3c" stroke="#c0392b" stroke-width="3" filter="url(#shadow)"/>
    <text x="280" y="76" text-anchor="middle" font-family="Arial, sans-serif" font-size="14" fill="white" font-weight="bold">N</text>
    
    <!-- Weight calculation -->
    <text x="70" y="200" text-anchor="middle" font-family="Arial, sans-serif" font-size="14" font-weight="bold" fill="#e74c3c">
      Weights per neuron: 12,288
    </text>
    <text x="70" y="220" text-anchor="middle" font-family="Arial, sans-serif" font-size="12" fill="#7f8c8d">
      (64 × 64 × 3 = 12,288)
    </text>
    <text x="70" y="240" text-anchor="middle" font-family="Arial, sans-serif" font-size="12" fill="#e74c3c" font-weight="bold">
      ⚠ Computationally Expensive
    </text>
  </g>
  
  <!-- Comparison Arrow -->
  <g transform="translate(380, 200)">
    <text x="0" y="0" text-anchor="middle" font-family="Arial, sans-serif" font-size="12" fill="#34495e" font-weight="bold">
      15.7× more weights!
    </text>
  </g>
  
  <!-- Bottom Statistics -->
  <g transform="translate(50, 350)">
    <rect x="0" y="0" width="700" height="120" fill="#ecf0f1" stroke="#bdc3c7" stroke-width="2" rx="10" filter="url(#shadow)"/>
    
    <text x="350" y="25" text-anchor="middle" font-family="Arial, sans-serif" font-size="16" font-weight="bold" fill="#2c3e50">
      Computational Impact on Traditional ANNs
    </text>
    
    <g transform="translate(50, 40)">
      <text x="0" y="20" font-family="Arial, sans-serif" font-size="14" fill="#27ae60" font-weight="bold">
        MNIST (28×28×1):
      </text>
      <text x="0" y="40" font-family="Arial, sans-serif" font-size="12" fill="#7f8c8d">
        • Manageable parameter count
      </text>
      <text x="0" y="55" font-family="Arial, sans-serif" font-size="12" fill="#7f8c8d">
        • Suitable for traditional ANNs
      </text>
      <text x="0" y="70" font-family="Arial, sans-serif" font-size="12" fill="#7f8c8d">
        • Fast training and inference
      </text>
    </g>
    
    <g transform="translate(350, 40)">
      <text x="0" y="20" font-family="Arial, sans-serif" font-size="14" fill="#e74c3c" font-weight="bold">
        Color Images (64×64×3):
      </text>
      <text x="0" y="40" font-family="Arial, sans-serif" font-size="12" fill="#7f8c8d">
        • Massive parameter explosion
      </text>
      <text x="0" y="55" font-family="Arial, sans-serif" font-size="12" fill="#7f8c8d">
        • Memory and compute intensive
      </text>
      <text x="0" y="70" font-family="Arial, sans-serif" font-size="12" fill="#7f8c8d">
        • Requires different architecture
      </text>
    </g>
  </g>
  
  <!-- Arrow markers -->
  <defs>
    <marker id="arrowhead" markerWidth="10" markerHeight="7" refX="9" refY="3.5" orient="auto">
      <polygon points="0 0, 10 3.5, 0 7" fill="#e74c3c"/>
    </marker>
    <marker id="arrowhead2" markerWidth="10" markerHeight="7" refX="9" refY="3.5" orient="auto">
      <polygon points="0 0, 10 3.5, 0 7" fill="#34495e"/>
    </marker>
  </defs>
</svg>